# xmcd CD database file
#
# Track frame offsets:
#	150
#	13459
#	26875
#	40820
#	52892
#	66330
#	77875
#	91223
#	102264
#	114715
#	127276
#	138156
#	149201
#	162086
#	173957
#	187452
#	199861
#	214801
#	228468
#	242369
#	256543
#	268726
#	282484
#	295262
#
# Disc length: 4106 seconds
#
# Revision: 0
# Processed by: cddbd v1.5.2PL0 Copyright (c) Steve Scherf et al.
# Submitted via: CDex 1.70beta2
#
DISCID=7a100818
DTITLE=J. J. Johnson - Bebop Story 1946-49
DYEAR=2008
DGENRE=Jazz
TTITLE0=Jay Bird
TTITLE1=Coppin' The Bop
TTITLE2=Jay Jay (Hey Jay Jay)
TTITLE3=Mad Be Bop
TTITLE4=Bone-o-logy
TTITLE5=Down Vernon's Alley
TTITLE6=Yesterdays
TTITLE7=Rifette
TTITLE8=Audobahn (Audobon)
TTITLE9=Don't Blame Me
TTITLE10=Goof Square
TTITLE11=Bee Jay
TTITLE12=Elyses
TTITLE13=Opus V
TTITLE14=Hilo
TTITLE15=Fox Hunt
TTITLE16=Aftrnoon In Paris
TTITLE17=Aftrnoon In Paris
TTITLE18=Elora
TTITLE19=Elora
TTITLE20=Tea Pot
TTITLE21=Tea Pot
TTITLE22=Blue Mode
TTITLE23=Blue Mode
EXTD=YEAR: 2008
EXTT0=
EXTT1=
EXTT2=
EXTT3=
EXTT4=
EXTT5=
EXTT6=
EXTT7=
EXTT8=
EXTT9=
EXTT10=
EXTT11=
EXTT12=
EXTT13=
EXTT14=
EXTT15=
EXTT16=
EXTT17=
EXTT18=
EXTT19=
EXTT20=
EXTT21=
EXTT22=
EXTT23=
PLAYORDER=
